<svg width="336" height="41" viewBox="0 0 336 41" fill="none" xmlns="http://www.w3.org/2000/svg">
<g filter="url(#filter0_d_1_3)">
<path d="M10.6387 0.71875L17.5137 15.3066L24.4316 0.71875H30.9199L20.5215 20.5488V32H14.5273V20.5488L4.10742 0.71875H10.6387ZM43.832 5.4668L34.916 32H28.6641L40.3516 0.71875H44.3477L43.832 5.4668ZM51.2871 32L42.3281 5.4668L41.791 0.71875H45.8086L57.5605 32H51.2871ZM50.8789 20.377V25.0391H34.0996V20.377H50.8789ZM77.1543 23.8789C77.1543 23.2773 77.0612 22.7402 76.875 22.2676C76.7031 21.7806 76.3809 21.3438 75.9082 20.957C75.4499 20.556 74.7982 20.1693 73.9531 19.7969C73.1224 19.4102 72.0482 19.0091 70.7305 18.5938C69.2695 18.1354 67.9089 17.6198 66.6484 17.0469C65.388 16.474 64.278 15.8079 63.3184 15.0488C62.373 14.2897 61.6354 13.416 61.1055 12.4277C60.5755 11.4251 60.3105 10.265 60.3105 8.94727C60.3105 7.6582 60.5827 6.48372 61.127 5.42383C61.6855 4.36393 62.4733 3.45443 63.4902 2.69531C64.5072 1.92188 65.7031 1.32747 67.0781 0.912109C68.4674 0.496745 70 0.289062 71.6758 0.289062C73.9961 0.289062 76.0013 0.711589 77.6914 1.55664C79.3958 2.40169 80.7135 3.54753 81.6445 4.99414C82.5755 6.44076 83.041 8.06641 83.041 9.87109H77.1543C77.1543 8.89714 76.9466 8.03776 76.5312 7.29297C76.1302 6.54818 75.5143 5.96094 74.6836 5.53125C73.8672 5.10156 72.8359 4.88672 71.5898 4.88672C70.3867 4.88672 69.3841 5.06576 68.582 5.42383C67.7943 5.7819 67.1999 6.26888 66.7988 6.88477C66.4121 7.50065 66.2188 8.18815 66.2188 8.94727C66.2188 9.52018 66.3548 10.0358 66.627 10.4941C66.8991 10.9382 67.3073 11.3607 67.8516 11.7617C68.3958 12.1484 69.069 12.5137 69.8711 12.8574C70.6875 13.1868 71.6328 13.5163 72.707 13.8457C74.4258 14.3613 75.9297 14.9342 77.2188 15.5645C78.5221 16.1947 79.6035 16.9108 80.4629 17.7129C81.3366 18.515 81.9883 19.4173 82.418 20.4199C82.862 21.4225 83.084 22.5612 83.084 23.8359C83.084 25.1823 82.819 26.3854 82.2891 27.4453C81.7591 28.5052 81 29.4076 80.0117 30.1523C79.0234 30.8971 77.8346 31.4629 76.4453 31.8496C75.0703 32.2363 73.5306 32.4297 71.8262 32.4297C70.3079 32.4297 68.804 32.2292 67.3145 31.8281C65.8392 31.4128 64.5 30.7969 63.2969 29.9805C62.0938 29.1497 61.1341 28.1042 60.418 26.8438C59.7018 25.569 59.3438 24.0794 59.3438 22.375H65.2734C65.2734 23.3633 65.431 24.2083 65.7461 24.9102C66.0755 25.5977 66.5339 26.1634 67.1211 26.6074C67.7227 27.0371 68.4245 27.3522 69.2266 27.5527C70.0286 27.7533 70.8952 27.8535 71.8262 27.8535C73.0293 27.8535 74.0176 27.6888 74.791 27.3594C75.5788 27.0156 76.166 26.543 76.5527 25.9414C76.9538 25.3398 77.1543 24.6523 77.1543 23.8789ZM108.393 13.6309V18.2715H91.9355V13.6309H108.393ZM93.5469 0.71875V32H87.6387V0.71875H93.5469ZM112.775 0.71875V32H106.867V0.71875H112.775Z" fill="black" fill-opacity="0.94" shape-rendering="crispEdges"/>
<path d="M142.188 5.4668L133.271 32H127.02L138.707 0.71875H142.703L142.188 5.4668ZM149.643 32L140.684 5.4668L140.146 0.71875H144.164L155.916 32H149.643ZM149.234 20.377V25.0391H132.455V20.377H149.234ZM183.158 15.8223V28.0039C182.7 28.5911 181.977 29.2285 180.988 29.916C180.014 30.6035 178.74 31.1979 177.164 31.6992C175.589 32.1862 173.655 32.4297 171.363 32.4297C169.372 32.4297 167.553 32.1003 165.906 31.4414C164.259 30.7682 162.841 29.7871 161.652 28.498C160.464 27.209 159.547 25.6335 158.902 23.7715C158.258 21.9095 157.936 19.7826 157.936 17.3906V15.3281C157.936 12.9362 158.236 10.8092 158.838 8.94727C159.454 7.08529 160.327 5.50977 161.459 4.2207C162.605 2.93164 163.973 1.95052 165.562 1.27734C167.167 0.604167 168.957 0.267578 170.934 0.267578C173.583 0.267578 175.76 0.704427 177.465 1.57812C179.184 2.45182 180.501 3.65495 181.418 5.1875C182.335 6.70573 182.908 8.45312 183.137 10.4297H177.379C177.221 9.34115 176.906 8.38867 176.434 7.57227C175.961 6.74154 175.288 6.09701 174.414 5.63867C173.555 5.16602 172.438 4.92969 171.062 4.92969C169.902 4.92969 168.878 5.15885 167.99 5.61719C167.102 6.07552 166.357 6.74154 165.756 7.61523C165.154 8.48893 164.696 9.57031 164.381 10.8594C164.08 12.1484 163.93 13.6237 163.93 15.2852V17.3906C163.93 19.0664 164.102 20.556 164.445 21.8594C164.789 23.1484 165.283 24.237 165.928 25.125C166.587 25.9987 167.396 26.6647 168.355 27.123C169.329 27.5671 170.432 27.7891 171.664 27.7891C172.781 27.7891 173.705 27.696 174.436 27.5098C175.18 27.3092 175.775 27.0729 176.219 26.8008C176.663 26.5286 177.007 26.2637 177.25 26.0059V20.1406H171.041V15.8223H183.158ZM188.744 0.71875H200.109C202.487 0.71875 204.528 1.07682 206.232 1.79297C207.937 2.50911 209.247 3.56901 210.164 4.97266C211.081 6.3763 211.539 8.10221 211.539 10.1504C211.539 11.7689 211.253 13.1725 210.68 14.3613C210.107 15.5501 209.298 16.5456 208.252 17.3477C207.221 18.1497 206.003 18.7799 204.6 19.2383L202.752 20.1836H192.719L192.676 15.5215H200.174C201.391 15.5215 202.401 15.3066 203.203 14.877C204.005 14.4473 204.607 13.8529 205.008 13.0938C205.423 12.3346 205.631 11.4681 205.631 10.4941C205.631 9.44857 205.43 8.54622 205.029 7.78711C204.628 7.01367 204.02 6.41927 203.203 6.00391C202.387 5.58854 201.355 5.38086 200.109 5.38086H194.652V32H188.744V0.71875ZM206.404 32L199.164 17.9922L205.416 17.9707L212.742 31.6992V32H206.404ZM229.156 5.4668L220.24 32H213.988L225.676 0.71875H229.672L229.156 5.4668ZM236.611 32L227.652 5.4668L227.115 0.71875H231.133L242.885 32H236.611ZM236.203 20.377V25.0391H219.424V20.377H236.203ZM252.639 26.0059L258.869 0.71875H262.242L262.457 6.04688L255.797 32H252.23L252.639 26.0059ZM248.707 0.71875L253.82 25.9199V32H249.932L242.842 0.71875H248.707ZM268.924 25.8125L273.951 0.71875H279.838L272.748 32H268.859L268.924 25.8125ZM263.854 0.71875L270.084 26.0918L270.449 32H266.883L260.244 6.02539L260.502 0.71875H263.854ZM295.07 5.4668L286.154 32H279.902L291.59 0.71875H295.586L295.07 5.4668ZM302.525 32L293.566 5.4668L293.029 0.71875H297.047L308.799 32H302.525ZM302.117 20.377V25.0391H285.338V20.377H302.117ZM331.873 27.3594V32H316.146V27.3594H331.873ZM317.93 0.71875V32H312.021V0.71875H317.93Z" fill="#13BDD5" shape-rendering="crispEdges"/>
</g>
<defs>
<filter id="filter0_d_1_3" x="0.107422" y="0.267578" width="335.766" height="40.1621" filterUnits="userSpaceOnUse" color-interpolation-filters="sRGB">
<feFlood flood-opacity="0" result="BackgroundImageFix"/>
<feColorMatrix in="SourceAlpha" type="matrix" values="0 0 0 0 0 0 0 0 0 0 0 0 0 0 0 0 0 0 127 0" result="hardAlpha"/>
<feOffset dy="4"/>
<feGaussianBlur stdDeviation="2"/>
<feComposite in2="hardAlpha" operator="out"/>
<feColorMatrix type="matrix" values="0 0 0 0 0 0 0 0 0 0 0 0 0 0 0 0 0 0 0.25 0"/>
<feBlend mode="normal" in2="BackgroundImageFix" result="effect1_dropShadow_1_3"/>
<feBlend mode="normal" in="SourceGraphic" in2="effect1_dropShadow_1_3" result="shape"/>
</filter>
</defs>
</svg>
